<mxfile host="app.diagrams.net" agent="Mozilla/5.0 (Windows NT 10.0; Win64; x64) AppleWebKit/537.36 (KHTML, like Gecko) Chrome/137.0.0.0 Safari/537.36" version="27.2.0">
  <diagram name="第 1 页" id="_CcGlVhLUjaCOkMFiAqN">
    <mxGraphModel dx="1426" dy="785" grid="1" gridSize="10" guides="1" tooltips="1" connect="1" arrows="1" fold="1" page="1" pageScale="1" pageWidth="827" pageHeight="1169" math="0" shadow="0">
      <root>
        <mxCell id="0" />
        <mxCell id="1" parent="0" />
        <mxCell id="i8TlHzL38ZyyF7EfmPJZ-25" value="" style="edgeStyle=orthogonalEdgeStyle;rounded=0;orthogonalLoop=1;jettySize=auto;html=1;" edge="1" parent="1" source="i8TlHzL38ZyyF7EfmPJZ-1" target="i8TlHzL38ZyyF7EfmPJZ-10">
          <mxGeometry relative="1" as="geometry" />
        </mxCell>
        <mxCell id="i8TlHzL38ZyyF7EfmPJZ-1" value="交易所盘前文件" style="shape=datastore;whiteSpace=wrap;html=1;" vertex="1" parent="1">
          <mxGeometry x="230" y="170" width="60" height="60" as="geometry" />
        </mxCell>
        <mxCell id="i8TlHzL38ZyyF7EfmPJZ-18" value="" style="edgeStyle=orthogonalEdgeStyle;rounded=0;orthogonalLoop=1;jettySize=auto;html=1;" edge="1" parent="1" source="i8TlHzL38ZyyF7EfmPJZ-10" target="i8TlHzL38ZyyF7EfmPJZ-12">
          <mxGeometry relative="1" as="geometry" />
        </mxCell>
        <mxCell id="i8TlHzL38ZyyF7EfmPJZ-10" value="nginx静态文件" style="shape=datastore;whiteSpace=wrap;html=1;" vertex="1" parent="1">
          <mxGeometry x="330" y="170" width="60" height="60" as="geometry" />
        </mxCell>
        <mxCell id="i8TlHzL38ZyyF7EfmPJZ-19" value="" style="edgeStyle=orthogonalEdgeStyle;rounded=0;orthogonalLoop=1;jettySize=auto;html=1;" edge="1" parent="1" source="i8TlHzL38ZyyF7EfmPJZ-12" target="i8TlHzL38ZyyF7EfmPJZ-13">
          <mxGeometry relative="1" as="geometry" />
        </mxCell>
        <mxCell id="i8TlHzL38ZyyF7EfmPJZ-12" value="ODS解析服务" style="shape=process;whiteSpace=wrap;html=1;backgroundOutline=1;" vertex="1" parent="1">
          <mxGeometry x="430" y="170" width="120" height="60" as="geometry" />
        </mxCell>
        <mxCell id="i8TlHzL38ZyyF7EfmPJZ-20" value="" style="edgeStyle=orthogonalEdgeStyle;rounded=0;orthogonalLoop=1;jettySize=auto;html=1;" edge="1" parent="1" source="i8TlHzL38ZyyF7EfmPJZ-13" target="i8TlHzL38ZyyF7EfmPJZ-14">
          <mxGeometry relative="1" as="geometry" />
        </mxCell>
        <mxCell id="i8TlHzL38ZyyF7EfmPJZ-13" value="内部同步平台" style="shape=process;whiteSpace=wrap;html=1;backgroundOutline=1;" vertex="1" parent="1">
          <mxGeometry x="610" y="170" width="120" height="60" as="geometry" />
        </mxCell>
        <mxCell id="i8TlHzL38ZyyF7EfmPJZ-21" value="" style="edgeStyle=orthogonalEdgeStyle;rounded=0;orthogonalLoop=1;jettySize=auto;html=1;" edge="1" parent="1" source="i8TlHzL38ZyyF7EfmPJZ-14" target="i8TlHzL38ZyyF7EfmPJZ-15">
          <mxGeometry relative="1" as="geometry" />
        </mxCell>
        <mxCell id="i8TlHzL38ZyyF7EfmPJZ-14" value="kafka" style="shape=cylinder3;whiteSpace=wrap;html=1;boundedLbl=1;backgroundOutline=1;size=15;" vertex="1" parent="1">
          <mxGeometry x="630" y="330" width="80" height="80" as="geometry" />
        </mxCell>
        <mxCell id="i8TlHzL38ZyyF7EfmPJZ-22" value="" style="edgeStyle=orthogonalEdgeStyle;rounded=0;orthogonalLoop=1;jettySize=auto;html=1;" edge="1" parent="1" source="i8TlHzL38ZyyF7EfmPJZ-15" target="i8TlHzL38ZyyF7EfmPJZ-16">
          <mxGeometry relative="1" as="geometry" />
        </mxCell>
        <mxCell id="i8TlHzL38ZyyF7EfmPJZ-15" value="DWD服务" style="shape=process;whiteSpace=wrap;html=1;backgroundOutline=1;" vertex="1" parent="1">
          <mxGeometry x="440" y="340" width="120" height="60" as="geometry" />
        </mxCell>
        <mxCell id="i8TlHzL38ZyyF7EfmPJZ-24" value="" style="edgeStyle=orthogonalEdgeStyle;rounded=0;orthogonalLoop=1;jettySize=auto;html=1;" edge="1" parent="1" source="i8TlHzL38ZyyF7EfmPJZ-16">
          <mxGeometry relative="1" as="geometry">
            <mxPoint x="200" y="370" as="targetPoint" />
          </mxGeometry>
        </mxCell>
        <mxCell id="i8TlHzL38ZyyF7EfmPJZ-16" value="polardb" style="shape=cylinder3;whiteSpace=wrap;html=1;boundedLbl=1;backgroundOutline=1;size=15;" vertex="1" parent="1">
          <mxGeometry x="280" y="330" width="80" height="80" as="geometry" />
        </mxCell>
        <mxCell id="i8TlHzL38ZyyF7EfmPJZ-28" value="结束" style="strokeWidth=2;html=1;shape=mxgraph.flowchart.terminator;whiteSpace=wrap;" vertex="1" parent="1">
          <mxGeometry x="110" y="340" width="100" height="60" as="geometry" />
        </mxCell>
        <mxCell id="i8TlHzL38ZyyF7EfmPJZ-32" value="" style="edgeStyle=orthogonalEdgeStyle;rounded=0;orthogonalLoop=1;jettySize=auto;html=1;" edge="1" parent="1" source="i8TlHzL38ZyyF7EfmPJZ-30" target="i8TlHzL38ZyyF7EfmPJZ-1">
          <mxGeometry relative="1" as="geometry" />
        </mxCell>
        <mxCell id="i8TlHzL38ZyyF7EfmPJZ-30" value="开始" style="strokeWidth=2;html=1;shape=mxgraph.flowchart.start_2;whiteSpace=wrap;" vertex="1" parent="1">
          <mxGeometry x="110" y="165" width="70" height="70" as="geometry" />
        </mxCell>
      </root>
    </mxGraphModel>
  </diagram>
</mxfile>
